<mxfile host="app.diagrams.net" modified="2023-05-03T12:00:12.429Z" agent="Mozilla/5.0 (Macintosh; Intel Mac OS X 10_15_7) AppleWebKit/537.36 (KHTML, like Gecko) Chrome/111.0.0.0 Safari/537.36" version="21.2.1" etag="oHruu6Q6fzd2Feyugmfz" type="github">
  <diagram name="第 1 页" id="Ruh7ImkBMBkC0HaApEOw">
    <mxGraphModel>
      <root>
        <mxCell id="0" />
        <mxCell id="1" parent="0" />
      </root>
    </mxGraphModel>
  </diagram>
</mxfile>
